# AST/ASF file generated using VICON BodyLanguage
# -----------------------------------------------
:version 1.10
:name VICON
:units
  mass 1.0
  length 0.45
  angle deg
:documentation
   .ast/.asf automatically generated from VICON data using
   VICON BodyBuilder and BodyLanguage model FoxedUp or BRILLIANT.MOD
:root
   order TX TY TZ RX RY RZ
   axis XYZ
   position 0 0 0  
   orientation 0 0 0 
:bonedata
  begin
     id 1 
     name lhipjoint
     direction 0.78388 -0.462562 0.414208 
     length 3.01181 
     axis 0 0 0  XYZ
  end
  begin
     id 2 
     name lfemur
     direction 0.34202 -0.939693 0  
     length 6.04673  
     axis 0 0 20  XYZ
    dof rx ry rz
    limits (-160.0 20.0)
           (-70.0 70.0)
           (-60.0 70.0)
  end
  begin
     id 3 
     name ltibia
     direction 0.34202 -0.939693 0   
     length 7.211   
     axis 0 0 20   XYZ
    dof rx
    limits (-10.0 170.0)
  end
  begin
     id 4 
     name lfoot
     direction 0.121887 -0.334882 0.934344   
     length 2.13567   
     axis -90 7.62852e-016 20   XYZ
    dof rx rz
    limits (-45.0 90.0)
           (-70.0 20.0)
  end
  begin
     id 5 
     name ltoes
     direction 1.53555e-011 -4.2179e-011 1   
     length 1.05957   
     axis -90 7.62852e-016 20   XYZ
    dof rx
    limits (-90.0 20.0)
  end
  begin
     id 6 
     name rhipjoint
     direction -0.769387 -0.475875 0.426129   
     length 2.92756  
     axis 0 0 0  XYZ 
  end
  begin
     id 7 
     name rfemur
     direction -0.34202 -0.939693 0   
     length 6.35468   
     axis 0 0 -20   XYZ
    dof rx ry rz
    limits (-160.0 20.0)
           (-70.0 70.0)
           (-70.0 60.0)
  end
  begin
     id 8 
     name rtibia
     direction -0.34202 -0.939693 0   
     length 7.37886   
     axis 0 0 -20   XYZ
    dof rx
    limits (-10.0 170.0)
 end
 begin
     id 9 
     name rfoot
     direction -0.101763 -0.279592 0.954711   
     length 2.21478  
     axis -90 -7.62852e-016 -20   XYZ
    dof rx rz
    limits (-45.0 90.0)
           (-20.0 70.0)
  end
  begin
     id 10 
     name rtoes
     direction -1.53494e-011 -4.21851e-011 1   
     length 1.10506   
     axis -90 -7.62852e-016 -20   XYZ
    dof rx
    limits (-90.0 20.0)
  end
  begin
     id 11 
     name lowerback
     direction 0.00747405 0.999267 0.0375481   
     length 2.13259   
     axis 0 0 0   XYZ
    dof rx ry rz
    limits (-20.0 45.0)
           (-30.0 30.0)
           (-30.0 30.0)
  end
  begin
     id 12 
     name upperback
     direction 0.00661626 0.996177 0.0871029   
     length 2.10528   
     axis 0 0 0   XYZ
    dof rx ry rz
    limits (-20.0 45.0)
           (-30.0 30.0)
           (-30.0 30.0)
  end
  begin
     id 13 
     name thorax
     direction 0.00320659 0.997679 0.0680167   
     length 2.11338   
     axis 0 0 0   XYZ
    dof rx ry rz
    limits (-20.0 45.0)
           (-30.0 30.0)
           (-30.0 30.0)
  end
  begin
     id 14 
     name lowerneck
     direction 0.0374841 0.973033 0.227602   
     length 1.42765   
     axis 0 0 0   XYZ
    dof rx ry rz
    limits (-20.0 45.0)
           (-30.0 30.0)
           (-30.0 30.0)
  end
  begin
     id 15 
     name upperneck
     direction 0.00481585 0.989155 -0.146795   
     length 1.47593   
     axis 0 0 0   XYZ
    dof rx ry rz
    limits (-20.0 45.0)
           (-30.0 30.0)
           (-30.0 30.0)
  end
  begin
     id 16
     name head
     direction -0.00292522 0.997206 -0.0746423  
     length 1.48116  
     axis 0 0 0   XYZ
    dof rx ry rz
    limits (-20.0 45.0)
           (-30.0 30.0)
           (-30.0 30.0)
  end
  begin
     id 17 
     name lclavicle
     direction 0.951444 0.305606 0.0368784  
     length 3.01855  
     axis 0 0 0   XYZ
    dof ry rz
    limits (-20.0 10.0)
           (0.0 20.0)
  end
  begin
     id 18 
     name lhumerus
     direction 1 -4.48977e-011 2.61664e-027   
     length 5.52731   
     axis 180 -30 -90   XYZ
    dof rx ry rz
    limits (-60.0 90.0)
           (-90.0 90.0)
           (-90.0 90.0)
  end
  begin
     id 19
     name lradius
     direction 1 -4.48944e-011 8.22157e-027   
     length 3.11059   
     axis 180 -30 -90   XYZ
    dof rx
    limits (-10.0 170.0)
  end
  begin
     id 20
     name lwrist
     direction 1 -4.48976e-011 1.5779e-026   
     length 1.5553   
     axis -1.15221e-014 90 90   XYZ
    dof ry
    limits (-180.0 0.0)
 end
  begin
     id 21 
     name lhand
     direction 1 -4.49025e-011 3.1558e-026   
     length 0.419626   
     axis -2.01367e-014 90 90   XYZ
    dof rx rz
    limits (-90.0 90.0)
           (-45.0 45.0)
  end
  begin
     id 22 
     name lfingers
     direction 1 -4.4904e-011 6.31161e-026   
     length 0.338313   
     axis -4.02734e-014 90 90   XYZ
    dof rx
    limits (0.0 90.0)
  end
  begin
     id 23
     name lthumb
     direction 0.707107 -6.35004e-011 0.707107   
     length 0.485752   
     axis -90 45 2.85299e-015   XYZ
    dof rx rz
    limits (-45.0 45.0)
           (-45.0 45.0)
  end
  begin
     id 24 
     name rclavicle
     direction -0.968876 0.223791 0.105816   
     length 3.04177  
     axis 0 0 0   XYZ 
    dof ry rz
    limits (-10.0 20.0)
           (-20.0 0.0)
  end
  begin
     id 25 
     name rhumerus
     direction -1 -4.48962e-011 -1.01384e-027  
     length 5.25396   
     axis 180 30 90   XYZ
    dof rx ry rz
    limits (-90.0 60.0)
           (-90.0 90.0)
           (-90.0 90.0)
  end
  begin
     id 26 
     name rradius
     direction -1 -4.48955e-011 8.88542e-027   
     length 3.10567   
     axis 180 30 90   XYZ
    dof rx
    limits (-10.0 170.0)
  end
  begin
     id 27 
     name rwrist
     direction -1 -4.48994e-011 1.5779e-026   
     length 1.55283   
     axis -1.15221e-014 -90 -90   XYZ
    dof ry
    limits (-180.0 0.0)
  end
  begin
     id 28
     name rhand
     direction -1 -4.48891e-011 3.1558e-026   
     length 0.498676   
     axis -2.01367e-014 -90 -90   XYZ
    dof rx rz
    limits (-90.0 90.0)
           (-45.0 45.0)
  end
  begin
     id 29
     name rfingers
     direction -1 -4.48972e-011 6.31161e-026   
     length 0.402045   
     axis -4.02734e-014 -90 -90   XYZ
    dof rx
    limits (0.0 90.0)
  end
  begin
     id 30
     name rthumb
     direction -0.707107 -6.34849e-011 0.707107   
     length 0.577259   
     axis -90 -45 -2.85299e-015   XYZ
    dof rx rz
    limits (-45.0 45.0)
           (-45.0 45.0)
  end
:hierarchy
  begin
    root lhipjoint rhipjoint lowerback
    lhipjoint lfemur
    lfemur ltibia
    ltibia lfoot
    lfoot ltoes
    rhipjoint rfemur
    rfemur rtibia
    rtibia rfoot
    rfoot rtoes
    lowerback upperback
    upperback thorax
    thorax lowerneck lclavicle rclavicle
    lowerneck upperneck
    upperneck head
    lclavicle lhumerus
    lhumerus lradius
    lradius lwrist
    lwrist lhand lthumb
    lhand lfingers
    rclavicle rhumerus
    rhumerus rradius
    rradius rwrist
    rwrist rhand rthumb
    rhand rfingers
  end

#!OML:ASF H:\Pregnant\Project 1\Capture day 1\Session 1\femalepreg.ASF
:FULLY-SPECIFIED
:DEGREES
1
root 5.68166 15.5912 28.4342 76.2941 -88.6517 -61.8362
lowerback -21.7585 0.189 0.113459
upperback -4.83205 -0.172418 0.766926
thorax 6.87492 -0.22718 0.701373
lowerneck -18.5315 4.27646 4.98545
upperneck 25.1366 4.40889 -0.573594
head 11.3857 2.30212 -0.396182
rclavicle -1.36043e-015 5.96354e-016
rhumerus -37.0711 18.2684 -93.8259
rradius 27.5811
rwrist -8.23929
rhand -15.0913 -18.5887
rfingers 7.12502
rthumb 11.0767 -48.2764
lclavicle -1.36043e-015 5.96354e-016
lhumerus -39.1045 -12.1811 91.6292
lradius 30.9959
lwrist 37.4425
lhand -27.1961 0.0680547
lfingers 7.12502
lthumb -0.609488 30.0469
rfemur -28.4591 22.1717 19.9602
rtibia 32.7319
rfoot -15.2546 -17.5765
rtoes 1.81276
lfemur -16.3495 -15.9428 -19.1295
ltibia 8.24559
lfoot -3.68219 10.6298
ltoes -7.63265
2
root 5.68078 15.5912 28.4343 76.4773 -88.6519 -62.0298
lowerback -21.7615 0.190632 0.122345
upperback -4.82304 -0.171565 0.764125
thorax 6.88632 -0.226396 0.693525
lowerneck -18.5505 4.26513 5.02463
upperneck 25.1444 4.381 -0.580264
head 11.3929 2.29236 -0.409004
rclavicle -1.73315e-015 -6.06293e-015
rhumerus -37.0595 18.2623 -93.8315
rradius 27.5898
rwrist -8.2271
rhand -15.0771 -18.6165
rfingers 7.12502
rthumb 11.0904 -48.3034
lclavicle -1.73315e-015 -6.06293e-015
lhumerus -39.0643 -11.715 91.3825
lradius 30.9914
lwrist 37.5501
lhand -27.4428 0.160598
lfingers 7.12502
lthumb -0.847741 30.1387
rfemur -28.4428 22.1397 19.9738
rtibia 32.7336
rfoot -15.2552 -17.5524
rtoes 1.75578
lfemur -16.327 -15.9403 -19.1376
ltibia 8.24215
lfoot -3.67576 10.6361
ltoes -7.57618
3
root 5.6807 15.5905 28.4344 76.6012 -88.6617 -62.1569
lowerback -21.7686 0.203415 0.149433
upperback -4.81473 -0.157565 0.729055
thorax 6.89882 -0.218774 0.643909
lowerneck -18.5663 4.24259 5.04171
upperneck 25.1423 4.32733 -0.528172
head 11.393 2.27639 -0.400775
rclavicle 7.26806e-016 3.52843e-015
rhumerus -37.0075 18.1322 -93.8148
rradius 27.5539
rwrist -8.12902
rhand -15.0712 -18.5964
rfingers 7.12502
rthumb 11.0961 -48.283
lclavicle 7.26806e-016 3.52843e-015
lhumerus -38.9989 -11.2507 91.0849
lradius 30.9517
lwrist 37.606
lhand -27.5018 0.282327
lfingers 7.12502
lthumb -0.904774 30.2602
rfemur -28.4376 22.1267 19.9732
rtibia 32.7267
rfoot -15.2392 -17.5644
rtoes 1.65508
lfemur -16.3446 -15.9367 -19.1523
ltibia 8.28973
lfoot -3.71301 10.6586
ltoes -7.57451
4
root 5.67751 15.5903 28.4283 80.1628 -88.6806 -65.7658
lowerback -21.778 0.201843 0.0862078
upperback -4.7884 -0.147223 0.76282
thorax 6.93241 -0.214502 0.719484
lowerneck -18.6167 4.23967 4.90743
upperneck 25.1885 4.33422 -0.429862
head 11.4142 2.27886 -0.340226
rclavicle 4.47266e-016 -3.47873e-015
rhumerus -37.0072 18.1872 -93.814
rradius 27.5751
rwrist -8.16864
rhand -15.0865 -18.5586
rfingers 7.12502
rthumb 11.0814 -48.2461
lclavicle 4.47266e-016 -3.47873e-015
lhumerus -38.9659 -10.8572 90.8895
lradius 30.927
lwrist 37.7898
lhand -27.387 0.336943
lfingers 7.12502
lthumb -0.793856 30.3152
rfemur -28.371 22.2878 20.0088
rtibia 32.7206
rfoot -15.2552 -17.6092
rtoes 1.83444
lfemur -16.2679 -15.8464 -19.1501
ltibia 8.32071
lfoot -3.79168 10.6573
ltoes -7.44416
5
root 5.6758 15.5899 28.4254 82.05 -88.693 -67.6805
lowerback -21.7834 0.206898 0.0665877
upperback -4.77195 -0.135522 0.763521
thorax 6.95303 -0.208833 0.734695
lowerneck -18.671 4.2306 4.8212
upperneck 25.2355 4.31798 -0.33589
head 11.4374 2.27494 -0.292666
rclavicle 2.23633e-016 -3.23025e-015
rhumerus -36.9925 18.1682 -93.8136
rradius 27.5774
rwrist -8.15433
rhand -15.083 -18.5369
rfingers 7.12502
rthumb 11.0847 -48.2242
lclavicle 2.23633e-016 -3.23025e-015
lhumerus -38.93 -10.4683 90.6621
lradius 30.9019
lwrist 37.9402
lhand -27.3684 0.382291
lfingers 7.12502
lthumb -0.775884 30.3606
rfemur -28.3336 22.357 20.0274
rtibia 32.7185
rfoot -15.2569 -17.6318
rtoes 1.86382
lfemur -16.2317 -15.7999 -19.1582
ltibia 8.3538
lfoot -3.84904 10.6694
ltoes -7.34082
6
root 5.67426 15.5894 28.4229 83.7736 -88.7067 -69.43
lowerback -21.7872 0.210848 0.0483019
upperback -4.75746 -0.125463 0.762218
thorax 6.97067 -0.203964 0.746524
lowerneck -18.7282 4.22217 4.72187
upperneck 25.2857 4.30452 -0.234367
head 11.4619 2.27196 -0.239612
rclavicle 2.15557e-015 2.73329e-015
rhumerus -36.9831 18.1563 -93.8171
rradius 27.5842
rwrist -8.15036
rhand -15.0808 -18.5196
rfingers 7.12502
rthumb 11.0868 -48.2067
lclavicle 2.15557e-015 2.73329e-015
lhumerus -38.9009 -10.1147 90.4499
lradius 30.8752
lwrist 38.1054
lhand -27.3132 0.397672
lfingers 7.12502
lthumb -0.722609 30.3762
rfemur -28.2991 22.4145 20.0414
rtibia 32.7169
rfoot -15.2577 -17.6481
rtoes 1.88052
lfemur -16.194 -15.758 -19.1702
ltibia 8.37669
lfoot -3.90285 10.6814
ltoes -7.21582
7
root 5.67312 15.589 28.4214 85.0225 -88.7198 -70.6997
lowerback -21.7891 0.210958 0.0371763
upperback -4.74681 -0.12216 0.760477
thorax 6.98324 -0.202321 0.751935
lowerneck -18.7784 4.21395 4.62838
upperneck 25.3308 4.29288 -0.142952
head 11.4837 2.26911 -0.191076
rclavicle -5.34234e-016 3.67752e-015
rhumerus -36.9765 18.1504 -93.8206
rradius 27.5911
rwrist -8.14854
rhand -15.0793 -18.5116
rfingers 7.12502
rthumb 11.0883 -48.1986
lclavicle -5.34234e-016 3.67752e-015
lhumerus -38.8826 -9.80101 90.2606
lradius 30.8511
lwrist 38.2886
lhand -27.2563 0.380281
lfingers 7.12502
lthumb -0.667664 30.359
rfemur -28.2758 22.4429 20.0493
rtibia 32.7228
rfoot -15.2634 -17.6469
rtoes 1.89306
lfemur -16.1563 -15.7284 -19.1855
ltibia 8.37895
lfoot -3.93526 10.6899
ltoes -7.12255
8
root 5.67243 15.5886 28.4209 85.7053 -88.7307 -71.3958
lowerback -21.7909 0.210263 0.0388773
upperback -4.74053 -0.122586 0.753736
thorax 6.991 -0.202327 0.74357
lowerneck -18.8146 4.20312 4.56116
upperneck 25.3621 4.27578 -0.07146
head 11.4986 2.26385 -0.155411
rclavicle -3.7707e-015 -2.13694e-015
rhumerus -36.9684 18.132 -93.8219
rradius 27.5943
rwrist -8.13955
rhand -15.0743 -18.5136
rfingers 7.12502
rthumb 11.0931 -48.2004
lclavicle -3.7707e-015 -2.13694e-015
lhumerus -38.8738 -9.53743 90.091
lradius 30.8289
lwrist 38.4827
lhand -27.1885 0.349608
lfingers 7.12502
lthumb -0.602142 30.3285
rfemur -28.2638 22.4412 20.0521
rtibia 32.7305
rfoot -15.2673 -17.6327
rtoes 1.88012
lfemur -16.1309 -15.7129 -19.201
ltibia 8.37611
lfoot -3.95414 10.6971
ltoes -7.03897
9
root 5.67226 15.5883 28.4218 85.7759 -88.737 -71.4712
lowerback -21.7928 0.208096 0.0573042
upperback -4.73917 -0.128758 0.744597
thorax 6.99354 -0.20493 0.721463
lowerneck -18.8347 4.19091 4.51889
upperneck 25.3797 4.2558 -0.0210772
head 11.5063 2.25706 -0.132502
rclavicle 1.73315e-015 -8.00108e-015
rhumerus -36.9609 18.1132 -93.8236
rradius 27.5956
rwrist -8.13307
rhand -15.075 -18.5243
rfingers 7.12502
rthumb 11.0924 -48.2112
lclavicle 1.73315e-015 -8.00108e-015
lhumerus -38.8737 -9.31232 89.9417
lradius 30.8064
lwrist 38.6698
lhand -27.1155 0.313423
lfingers 7.12502
lthumb -0.531614 30.2925
rfemur -28.2634 22.4025 20.0516
rtibia 32.7374
rfoot -15.2743 -17.5954
rtoes 1.87036
lfemur -16.1244 -15.7128 -19.2149
ltibia 8.37711
lfoot -3.96161 10.7005
ltoes -6.97614
